<?xml version="1.0" encoding="UTF-8"?>
<svg width="23px" height="23px" viewBox="0 0 23 23" version="1.1" xmlns="http://www.w3.org/2000/svg" xmlns:xlink="http://www.w3.org/1999/xlink">
    <!-- Generator: Sketch 47.1 (45422) - http://www.bohemiancoding.com/sketch -->
    <title>Group</title>
    <desc>Created with Sketch.</desc>
    <defs></defs>
    <g id="Page-1" stroke="none" stroke-width="1" fill="none" fill-rule="evenodd">
        <g id="Artboard-2" transform="translate(-394.000000, -2659.000000)" fill-rule="nonzero" fill="#9B9B9B">
            <g id="icon_instagram" transform="translate(383.000000, 2648.000000)">
                <g id="Group" transform="translate(11.000000, 11.000000)">
                    <path d="M11.570229,2.19465649 C14.6251908,2.19465649 14.9763359,2.21221374 16.1877863,2.2648855 C17.2938931,2.31755725 17.9083969,2.49312977 18.3122137,2.65114504 C18.8389313,2.86183206 19.2251908,3.10763359 19.6290076,3.51145038 C20.0328244,3.91526718 20.278626,4.28396947 20.489313,4.82824427 C20.6473282,5.23206107 20.840458,5.82900763 20.8755725,6.95267176 C20.9282443,8.16412214 20.9458015,8.51526718 20.9458015,11.570229 C20.9458015,14.6251908 20.9282443,14.9763359 20.8755725,16.1877863 C20.8229008,17.2938931 20.6473282,17.9083969 20.489313,18.3122137 C20.278626,18.8389313 20.0328244,19.2251908 19.6290076,19.6290076 C19.2251908,20.0328244 18.8564885,20.278626 18.3122137,20.489313 C17.9083969,20.6473282 17.3114504,20.840458 16.1877863,20.8755725 C14.9763359,20.9282443 14.6251908,20.9458015 11.570229,20.9458015 C8.51526718,20.9458015 8.16412214,20.9282443 6.95267176,20.8755725 C5.84656489,20.8229008 5.23206107,20.6473282 4.82824427,20.489313 C4.30152672,20.278626 3.91526718,20.0328244 3.51145038,19.6290076 C3.10763359,19.2251908 2.86183206,18.8564885 2.65114504,18.3122137 C2.49312977,17.9083969 2.3,17.3114504 2.2648855,16.1877863 C2.21221374,14.9763359 2.19465649,14.6251908 2.19465649,11.570229 C2.19465649,8.51526718 2.21221374,8.16412214 2.2648855,6.95267176 C2.31755725,5.84656489 2.49312977,5.23206107 2.65114504,4.82824427 C2.86183206,4.30152672 3.10763359,3.91526718 3.51145038,3.51145038 C3.91526718,3.10763359 4.28396947,2.86183206 4.82824427,2.65114504 C5.23206107,2.49312977 5.82900763,2.3 6.95267176,2.2648855 C8.14656489,2.21221374 8.51526718,2.19465649 11.570229,2.19465649 L11.570229,2.19465649 Z M11.570229,0.140458015 C8.46259542,0.140458015 8.07633588,0.158015267 6.8648855,0.210687023 C5.65343511,0.263358779 4.81068702,0.45648855 4.09083969,0.73740458 C3.33587786,1.03587786 2.70381679,1.4221374 2.07175573,2.05419847 C1.43969466,2.68625954 1.05343511,3.31832061 0.754961832,4.07328244 C0.474045802,4.79312977 0.280916031,5.63587786 0.228244275,6.84732824 C0.175572519,8.05877863 0.158015267,8.46259542 0.158015267,11.5526718 C0.158015267,14.6603053 0.175572519,15.0465649 0.228244275,16.2580153 C0.280916031,17.4694656 0.474045802,18.3122137 0.754961832,19.0320611 C1.05343511,19.7870229 1.43969466,20.419084 2.07175573,21.051145 C2.70381679,21.6832061 3.33587786,22.0694656 4.09083969,22.3679389 C4.81068702,22.648855 5.65343511,22.8419847 6.8648855,22.8946565 C8.07633588,22.9473282 8.48015267,22.9648855 11.570229,22.9648855 C14.6603053,22.9648855 15.0641221,22.9473282 16.2755725,22.8946565 C17.4870229,22.8419847 18.329771,22.648855 19.0496183,22.3679389 C19.8045802,22.0694656 20.4366412,21.6832061 21.0687023,21.051145 C21.7007634,20.419084 22.0870229,19.7870229 22.3854962,19.0320611 C22.6664122,18.3122137 22.859542,17.4694656 22.9122137,16.2580153 C22.9648855,15.0465649 22.9824427,14.6427481 22.9824427,11.5526718 C22.9824427,8.46259542 22.9648855,8.05877863 22.9122137,6.84732824 C22.859542,5.63587786 22.6664122,4.79312977 22.3854962,4.07328244 C22.0870229,3.31832061 21.7007634,2.68625954 21.0687023,2.05419847 C20.4366412,1.4221374 19.8045802,1.03587786 19.0496183,0.73740458 C18.329771,0.45648855 17.4870229,0.263358779 16.2755725,0.210687023 C15.0641221,0.158015267 14.6603053,0.140458015 11.570229,0.140458015 L11.570229,0.140458015 Z" id="Shape"></path>
                    <path d="M11.570229,5.68854962 C8.3221374,5.68854962 5.70610687,8.3221374 5.70610687,11.5526718 C5.70610687,14.7832061 8.33969466,17.4167939 11.570229,17.4167939 C14.8007634,17.4167939 17.4343511,14.7832061 17.4343511,11.5526718 C17.4343511,8.3221374 14.8007634,5.68854962 11.570229,5.68854962 Z M11.570229,15.3625954 C9.46335878,15.3625954 7.76030534,13.659542 7.76030534,11.5526718 C7.76030534,9.44580153 9.46335878,7.74274809 11.570229,7.74274809 C13.6770992,7.74274809 15.3801527,9.44580153 15.3801527,11.5526718 C15.3801527,13.659542 13.6770992,15.3625954 11.570229,15.3625954 Z" id="Shape"></path>
                    <circle id="Oval" cx="17.6625954" cy="5.46030534" r="1.36946565"></circle>
                </g>
            </g>
        </g>
    </g>
</svg>