<?xml version="1.0" encoding="UTF-8"?><!DOCTYPE svg PUBLIC "-//W3C//DTD SVG 1.1//EN" "http://www.w3.org/Graphics/SVG/1.1/DTD/svg11.dtd"><svg xmlns="http://www.w3.org/2000/svg"><symbol id="icon-facebook" viewBox="0 0 10 19">
    <title>
        facebook
    </title>
    <path d="M9.766.157v2.946H8.014c-.64 0-1.071.134-1.295.402-.223.268-.335.67-.335 1.205v2.11h3.27l-.435 3.303H6.384v8.471H2.97v-8.47H.123V6.82H2.97V4.387c0-1.384.387-2.457 1.161-3.22C4.904.404 5.934.023 7.222.023c1.093 0 1.941.045 2.544.134z" fill-rule="evenodd"/>
</symbol><symbol id="icon-insta" viewBox="0 0 23 23">
    <title>
        Group
    </title>
    <g fill-rule="nonzero">
        <path d="M11.57 2.195c3.055 0 3.406.017 4.618.07 1.106.053 1.72.228 2.124.386.527.21.913.457 1.317.86.404.404.65.773.86 1.317.158.404.351 1.001.387 2.125.052 1.211.07 1.562.07 4.617 0 3.055-.018 3.406-.07 4.618-.053 1.106-.229 1.72-.387 2.124-.21.527-.456.913-.86 1.317-.404.404-.773.65-1.317.86-.404.158-1 .351-2.124.387-1.212.052-1.563.07-4.618.07-3.055 0-3.406-.018-4.617-.07-1.106-.053-1.72-.229-2.125-.387a3.646 3.646 0 0 1-1.317-.86 3.502 3.502 0 0 1-.86-1.317c-.158-.404-.351-1-.386-2.124-.053-1.212-.07-1.563-.07-4.618 0-3.055.017-3.406.07-4.617.053-1.106.228-1.72.386-2.125.21-.526.457-.913.86-1.317.404-.403.773-.65 1.317-.86.404-.158 1.001-.351 2.125-.386 1.194-.053 1.562-.07 4.617-.07zm0-2.055c-3.107 0-3.494.018-4.705.07C5.653.264 4.81.457 4.09.738a5.65 5.65 0 0 0-2.02 1.317 5.65 5.65 0 0 0-1.316 2.02c-.281.72-.474 1.562-.527 2.773-.052 1.212-.07 1.616-.07 4.706 0 3.107.018 3.494.07 4.705.053 1.211.246 2.054.527 2.774a5.65 5.65 0 0 0 1.317 2.02 5.65 5.65 0 0 0 2.019 1.316c.72.28 1.562.474 2.774.527 1.211.052 1.615.07 4.705.07s3.494-.018 4.706-.07c1.211-.053 2.054-.246 2.774-.527a5.65 5.65 0 0 0 2.019-1.317 5.65 5.65 0 0 0 1.316-2.019c.281-.72.475-1.563.527-2.774.053-1.211.07-1.615.07-4.705s-.017-3.494-.07-4.706c-.052-1.211-.246-2.054-.527-2.774a5.65 5.65 0 0 0-1.316-2.019 5.65 5.65 0 0 0-2.02-1.317c-.72-.28-1.562-.474-2.773-.526C15.064.158 14.66.14 11.57.14z"/>
        <path d="M11.57 5.689a5.863 5.863 0 0 0-5.864 5.864 5.875 5.875 0 0 0 5.864 5.864 5.875 5.875 0 0 0 5.864-5.864 5.875 5.875 0 0 0-5.864-5.864zm0 9.674a3.806 3.806 0 0 1-3.81-3.81 3.806 3.806 0 0 1 3.81-3.81 3.806 3.806 0 0 1 3.81 3.81 3.806 3.806 0 0 1-3.81 3.81z"/>
        <circle cx="17.663" cy="5.46" r="1.369"/>
    </g>
</symbol></svg>